<svg width="1324" height="581" viewBox="0 0 1324 581" fill="none" xmlns="http://www.w3.org/2000/svg">
<path d="M290.904 329.484C381.888 329.484 455.646 255.727 455.646 164.742C455.646 73.7575 381.888 0 290.904 0C199.919 0 126.162 73.7575 126.162 164.742C126.162 255.727 199.919 329.484 290.904 329.484Z" fill="white"/>
<path d="M578.626 217.283C572.58 221.181 564.705 222.255 554.96 222.255H533.96V170.31H555.875C564.148 170.31 572.739 171.543 579.182 175.68C585.745 179.856 589.723 187.055 589.723 195.447C589.723 205.55 585.149 213.027 578.626 217.283ZM592.268 247.988C621.183 240.073 630.848 213.783 630.848 195.288C630.848 169.992 618.678 151.219 596.086 141.713C584.472 136.821 570.91 134.872 551.977 134.872H492.556V319.302H533.92V255.824H538.136C546.409 255.824 553.847 258.647 560.171 265.051C572.62 277.659 585.626 300.489 594.575 317.473L595.529 319.302H643.496L640.434 314.251C634.667 304.705 608.854 262.665 592.268 247.948V247.988Z" fill="#002F5F"/>
<path d="M787.556 227.226C787.556 262.943 769.658 286.012 740.385 286.012C711.111 286.012 692.656 262.943 692.656 227.226C692.656 191.51 710.992 168.441 740.385 168.441C769.777 168.441 787.556 191.51 787.556 227.226ZM740.385 131.69C714.651 131.69 692.736 139.963 676.866 155.395C659.286 172.538 650.019 197.317 650.178 227.226C650.178 284.5 686.452 323.001 740.385 323.001C794.318 323.001 829.995 284.5 829.995 227.226C829.995 169.952 795.034 131.69 740.385 131.69Z" fill="#002F5F"/>
<path d="M955.719 134.912L903.337 216.289L879.552 134.912H836.557L875.456 255.625L832.262 319.342H878.479L1002.37 134.912H955.719Z" fill="#002F5F"/>
<path d="M1184.18 283.943V134.912H1142.81V319.342H1247.66L1262.45 283.943H1184.18Z" fill="#002F5F"/>
<path d="M1023.41 239.278L1065.26 175.401V239.278H1023.41ZM1106.62 134.912H1050.78L924.536 319.342H970.952L1000.3 274.04H1065.26V319.342H1106.62V134.912Z" fill="#002F5F"/>
<path d="M381.428 448.129C375.383 452.026 367.508 453.1 357.763 453.1H336.763V401.156H358.678C366.951 401.156 375.542 402.349 381.985 406.486C388.548 410.662 392.525 417.861 392.525 426.253C392.525 436.356 387.951 443.833 381.428 448.089V448.129ZM395.071 478.834C423.946 470.919 433.651 444.629 433.651 426.134C433.651 400.838 421.48 382.065 398.889 372.559C387.275 367.667 373.712 365.718 354.82 365.718H295.398V550.148H336.763V486.669H340.939C349.212 486.669 356.649 489.493 362.973 495.897C375.423 508.505 388.429 531.335 397.378 548.358L398.332 550.188H446.299L443.237 545.136C437.469 535.591 411.656 493.55 395.071 478.874V478.834Z" fill="#002F5F"/>
<path d="M896.933 448.129C890.888 452.026 883.013 453.1 873.268 453.1H852.268V401.156H874.183C882.456 401.156 891.047 402.349 897.49 406.486C904.053 410.662 908.03 417.861 908.03 426.253C908.03 436.356 903.496 443.833 896.933 448.089V448.129ZM910.576 478.834C939.451 470.919 949.156 444.629 949.156 426.134C949.156 400.838 936.985 382.065 914.394 372.559C902.78 367.667 889.217 365.718 870.325 365.718H810.903V550.148H852.268V486.669H856.444C864.717 486.669 872.155 489.493 878.479 495.897C890.928 508.505 903.934 531.335 912.883 548.358L913.837 550.188H961.804L958.742 545.136C952.974 535.591 927.161 493.55 910.576 478.874V478.834Z" fill="#002F5F"/>
<path d="M746.43 458.35C746.43 494.067 728.492 517.136 699.259 517.136C670.025 517.136 651.531 494.067 651.531 458.35C651.531 422.634 669.866 399.565 699.259 399.565C728.652 399.565 746.43 422.634 746.43 458.35ZM699.259 362.814C673.525 362.814 651.61 371.087 635.741 386.519C618.161 403.662 608.893 428.441 609.052 458.39C609.052 515.664 645.286 554.165 699.259 554.165C753.232 554.165 788.869 515.664 788.869 458.35C788.869 401.037 753.908 362.814 699.259 362.814Z" fill="#002F5F"/>
<path d="M98.8373 470.123L140.679 406.207V470.123H98.8373ZM126.201 365.758L0 550.188H46.4157L75.7686 504.886H140.719V550.188H182.083V365.758H126.201Z" fill="#002F5F"/>
<path d="M216.567 365.758V550.188H257.932V365.758H216.567Z" fill="#002F5F"/>
<path d="M533.88 401.275H599.905L618.2 365.758H492.595V550.347H533.88V475.692H584.592V440.413H533.88V401.275Z" fill="#002F5F"/>
<path d="M1074.64 517.096C1060.52 517.096 1045.33 513.636 1035.54 507.511C1019.79 497.607 1010.57 479.629 1010.57 457.356C1010.57 443.992 1014.23 430.589 1022.86 419.691C1032.52 407.48 1048.75 400.321 1069.75 400.321C1082.64 400.321 1093.97 401.673 1109.52 405.611V368.104C1094.13 364.366 1081.09 362.576 1064.94 362.576C1041.27 362.576 1013.07 370.212 994.617 388.508C976.839 406.128 967.492 431.106 967.492 457.595C967.492 488.101 979.265 515.028 998.634 531.772C1017.69 548.279 1045.89 553.847 1069.35 553.847C1085.62 553.847 1103.52 551.182 1113.82 547.841V511.965C1102.17 515.068 1089.48 517.136 1074.68 517.136L1074.64 517.096Z" fill="#002F5F"/>
<path fill-rule="evenodd" clip-rule="evenodd" d="M1184.1 514.749V474.061H1234.17V438.782H1184.1V401.275H1248.77L1262.69 365.718H1142.69V550.307H1255.61V514.71H1184.06L1184.1 514.749Z" fill="#002F5F"/>
<path d="M292.757 322.111C379.672 321.08 449.294 249.785 448.262 162.87C447.231 75.9559 375.936 6.33388 289.022 7.36546C202.107 8.39703 132.485 79.6915 133.517 166.606C134.548 253.521 205.843 323.143 292.757 322.111Z" fill="#002F5F"/>
<path d="M290.904 59.8194C348.854 59.8194 395.826 106.792 395.826 164.742C395.826 222.692 348.854 269.665 290.904 269.665C232.954 269.665 185.981 222.692 185.981 164.742C185.981 106.792 232.954 59.8194 290.904 59.8194Z" fill="white"/>
<path d="M290.904 112.241C319.899 112.241 343.365 135.747 343.365 164.702C343.365 193.657 319.899 217.164 290.904 217.164C261.909 217.164 238.442 193.657 238.442 164.702C238.442 135.747 261.949 112.241 290.904 112.241Z" fill="#C60C30"/>
</svg>
