<svg width="96" height="42" viewBox="0 0 96 42" fill="none" xmlns="http://www.w3.org/2000/svg">
<path d="M21.9882 24.7761C28.8653 24.7761 34.4404 19.2298 34.4404 12.3881C34.4404 5.54633 28.8653 0 21.9882 0C15.1111 0 9.53603 5.54633 9.53603 12.3881C9.53603 19.2298 15.1111 24.7761 21.9882 24.7761Z" fill="white"/>
<path d="M43.7359 16.339C43.2789 16.6321 42.6837 16.7128 41.9471 16.7128H40.3598V12.8068H42.0163C42.6416 12.8068 43.2909 12.8995 43.778 13.2106C44.274 13.5246 44.5746 14.0659 44.5746 14.697C44.5746 15.4567 44.2289 16.019 43.7359 16.339ZM44.7671 18.6479C46.9526 18.0527 47.6832 16.0758 47.6832 14.685C47.6832 12.7829 46.7632 11.3712 45.0557 10.6564C44.1778 10.2885 43.1527 10.1419 41.7216 10.1419H37.2302V24.0105H40.3568V19.2371H40.6755C41.3008 19.2371 41.8629 19.4494 42.341 19.931C43.2819 20.8791 44.265 22.5958 44.9414 23.8729L45.0136 24.0105H48.6392L48.4077 23.6306C47.9718 22.9128 46.0207 19.7515 44.7671 18.6449V18.6479Z" fill="white"/>
<path d="M59.5281 17.0867C59.5281 19.7725 58.1752 21.5072 55.9626 21.5072C53.7499 21.5072 52.355 19.7725 52.355 17.0867C52.355 14.4009 53.7409 12.6662 55.9626 12.6662C58.1842 12.6662 59.5281 14.4009 59.5281 17.0867ZM55.9626 9.90268C54.0175 9.90268 52.361 10.5248 51.1615 11.6852C49.8327 12.9743 49.1322 14.8376 49.1442 17.0867C49.1442 21.3935 51.886 24.2886 55.9626 24.2886C60.0391 24.2886 62.7358 21.3935 62.7358 17.0867C62.7358 12.7799 60.0932 9.90268 55.9626 9.90268Z" fill="white"/>
<path d="M72.2388 10.1449L68.2794 16.2642L66.4817 10.1449H63.2318L66.172 19.2221L62.9072 24.0135H66.4005L75.7652 10.1449H72.2388Z" fill="white"/>
<path d="M89.507 21.3516V10.1449H86.3805V24.0135H94.3051L95.4235 21.3516H89.507Z" fill="white"/>
<path d="M77.3555 17.9929L80.5182 13.1896V17.9929H77.3555ZM83.6447 10.1449H79.4239L69.8818 24.0135H73.3902L75.6088 20.6069H80.5182V24.0135H83.6447V10.1449Z" fill="white"/>
<path d="M28.8306 33.6978C28.3736 33.9909 27.7784 34.0717 27.0418 34.0717H25.4545V30.1656H27.111C27.7363 30.1656 28.3856 30.2554 28.8727 30.5664C29.3687 30.8805 29.6693 31.4218 29.6693 32.0529C29.6693 32.8125 29.3236 33.3748 28.8306 33.6948V33.6978ZM29.8617 36.0068C32.0443 35.4116 32.7779 33.4346 32.7779 32.0439C32.7779 30.1417 31.8579 28.73 30.1503 28.0152C29.2725 27.6474 28.2473 27.5008 26.8193 27.5008H22.3279V41.3693H25.4545V36.596H25.7701C26.3955 36.596 26.9576 36.8083 27.4356 37.2898C28.3766 38.2379 29.3597 39.9547 30.0361 41.2347L30.1083 41.3723H33.7339L33.5024 40.9925C33.0665 40.2747 31.1154 37.1134 29.8617 36.0097V36.0068Z" fill="white"/>
<path d="M67.7954 33.6978C67.3385 33.9909 66.7432 34.0717 66.0067 34.0717H64.4193V30.1656H66.0758C66.7011 30.1656 67.3505 30.2554 67.8375 30.5664C68.3336 30.8805 68.6342 31.4218 68.6342 32.0529C68.6342 32.8125 68.2915 33.3748 67.7954 33.6948V33.6978ZM68.8266 36.0068C71.0092 35.4116 71.7427 33.4346 71.7427 32.0439C71.7427 30.1417 70.8228 28.73 69.1152 28.0152C68.2374 27.6474 67.2122 27.5008 65.7842 27.5008H61.2928V41.3693H64.4193V36.596H64.735C65.3603 36.596 65.9225 36.8083 66.4005 37.2898C67.3415 38.2379 68.3245 39.9547 69.001 41.2347L69.0731 41.3723H72.6987L72.4672 40.9925C72.0313 40.2747 70.0802 37.1134 68.8266 36.0097V36.0068Z" fill="white"/>
<path d="M56.4195 34.4665C56.4195 37.1522 55.0637 38.8869 52.854 38.8869C50.6444 38.8869 49.2465 37.1522 49.2465 34.4665C49.2465 31.7807 50.6324 30.046 52.854 30.046C55.0757 30.046 56.4195 31.7807 56.4195 34.4665ZM52.854 27.2825C50.909 27.2825 49.2525 27.9046 48.053 29.065C46.7242 30.3541 46.0237 32.2174 46.0357 34.4695C46.0357 38.7763 48.7745 41.6714 52.854 41.6714C56.9336 41.6714 59.6273 38.7763 59.6273 34.4665C59.6273 30.1567 56.9847 27.2825 52.854 27.2825Z" fill="white"/>
<path d="M7.4707 35.3518L10.6333 30.5455V35.3518H7.4707ZM9.53904 27.5038L0 41.3723H3.50837L5.72703 37.9658H10.6363V41.3723H13.7629V27.5038H9.53904Z" fill="white"/>
<path d="M16.3694 27.5038V41.3723H19.496V27.5038H16.3694Z" fill="white"/>
<path d="M40.3538 30.1746H45.3443L46.7272 27.5038H37.2332V41.3843H40.3538V35.7705H44.1868V33.1176H40.3538V30.1746Z" fill="white"/>
<path d="M81.2276 38.8839C80.1604 38.8839 79.012 38.6237 78.2724 38.1632C77.0819 37.4184 76.3845 36.0666 76.3845 34.3917C76.3845 33.3868 76.6611 32.3789 77.3134 31.5594C78.044 30.6412 79.2705 30.1028 80.8579 30.1028C81.8319 30.1028 82.6887 30.2045 83.8642 30.5006V27.6803C82.7007 27.3991 81.7147 27.2645 80.4941 27.2645C78.7053 27.2645 76.5739 27.8388 75.1789 29.2146C73.8351 30.5395 73.1286 32.4177 73.1286 34.4096C73.1286 36.7036 74.0185 38.7284 75.4826 39.9876C76.9226 41.2288 79.0541 41.6475 80.8278 41.6475C82.0574 41.6475 83.4102 41.4471 84.1889 41.1959V38.4981C83.308 38.7314 82.349 38.8869 81.2307 38.8869L81.2276 38.8839Z" fill="white"/>
<path fill-rule="evenodd" clip-rule="evenodd" d="M89.501 38.7075V35.6479H93.286V32.995H89.501V30.1746H94.3893L95.4415 27.5008H86.3715V41.3813H94.9064V38.7045H89.498L89.501 38.7075Z" fill="white"/>
<path d="M22.1283 24.2217C28.6978 24.1441 33.9602 18.783 33.8823 12.2473C33.8043 5.71164 28.4154 0.476287 21.8459 0.553858C15.2764 0.631429 10.014 5.99254 10.092 12.5282C10.1699 19.0639 15.5588 24.2993 22.1283 24.2217Z" fill="#002F5F"/>
<path d="M21.9882 4.49823C26.3684 4.49823 29.9189 8.03041 29.9189 12.3881C29.9189 16.7457 26.3684 20.2779 21.9882 20.2779C17.608 20.2779 14.0575 16.7457 14.0575 12.3881C14.0575 8.03041 17.608 4.49823 21.9882 4.49823Z" fill="white"/>
<path d="M21.9882 8.44016C24.1798 8.44016 25.9535 10.2077 25.9535 12.3851C25.9535 14.5624 24.1798 16.33 21.9882 16.33C19.7966 16.33 18.0229 14.5624 18.0229 12.3851C18.0229 10.2077 19.7996 8.44016 21.9882 8.44016Z" fill="#C60C30"/>
</svg>
